<svg width="402" height="874" viewBox="0 0 402 874" fill="none" xmlns="http://www.w3.org/2000/svg">
<rect width="402" height="874" fill="#111727"/>
<path d="M268.953 236C268.953 234.343 270.296 233 271.953 233H324C325.657 233 327 234.343 327 236V355.999C327 357.656 325.657 358.999 324 358.999H271.953C270.296 358.999 268.953 357.656 268.953 355.999V236Z" fill="#BEF364"/>
<path d="M271.953 165.802C270.296 165.802 268.953 164.459 268.953 162.802V68C268.953 66.3431 270.296 65 271.953 65H324C325.657 65 327 66.3431 327 68V162.802C327 164.459 325.657 165.802 324 165.802H271.953Z" fill="#BEF364"/>
<path d="M3 359C1.34315 359 0 357.657 0 356V68.0006C0 66.3437 1.34315 65.0005 3 65.0005H122.457C124.114 65.0005 125.457 66.3437 125.457 68.0005V162.8C125.457 164.457 126.8 165.8 128.457 165.8H130.821C132.478 165.8 133.821 164.457 133.821 162.8V68.0005C133.821 66.3437 135.164 65.0005 136.821 65.0005H256.278C257.935 65.0005 259.278 66.3437 259.278 68.0005V162.579C259.278 164.236 257.935 165.579 256.278 165.579H178.64C176.983 165.579 175.64 166.922 175.64 168.579V230C175.64 231.657 176.983 233 178.64 233H256.278C257.935 233 259.278 234.343 259.278 236V356C259.278 357.657 257.935 359 256.278 359H136.821C135.164 359 133.821 357.657 133.821 356V227.6C133.821 225.943 132.478 224.6 130.821 224.6H128.457C126.8 224.6 125.457 225.943 125.457 227.6V356C125.457 357.657 124.114 359 122.457 359H3Z" fill="#F9FBFC"/>
<path d="M343.953 722C343.953 720.343 345.296 719 346.953 719H399C400.657 719 402 720.343 402 722V841.999C402 843.656 400.657 844.999 399 844.999H346.953C345.296 844.999 343.953 843.656 343.953 841.999V722Z" fill="#BEF364"/>
<path d="M346.953 651.802C345.296 651.802 343.953 650.459 343.953 648.802V554C343.953 552.343 345.296 551 346.953 551H399C400.657 551 402 552.343 402 554V648.802C402 650.459 400.657 651.802 399 651.802H346.953Z" fill="#BEF364"/>
<path d="M78 845C76.3431 845 75 843.657 75 842V554.001C75 552.344 76.3431 551.001 78 551.001H197.457C199.114 551.001 200.457 552.344 200.457 554.001V648.8C200.457 650.457 201.8 651.8 203.457 651.8H205.821C207.478 651.8 208.821 650.457 208.821 648.8V554.001C208.821 552.344 210.164 551.001 211.821 551.001H331.278C332.935 551.001 334.278 552.344 334.278 554.001V648.579C334.278 650.236 332.935 651.579 331.278 651.579H253.64C251.983 651.579 250.64 652.922 250.64 654.579V716C250.64 717.657 251.983 719 253.64 719H331.278C332.935 719 334.278 720.343 334.278 722V842C334.278 843.657 332.935 845 331.278 845H211.821C210.164 845 208.821 843.657 208.821 842V713.6C208.821 711.943 207.478 710.6 205.821 710.6H203.457C201.8 710.6 200.457 711.943 200.457 713.6V842C200.457 843.657 199.114 845 197.457 845H78Z" fill="#F9FBFC"/>
<path d="M318.869 352C269.538 390.551 390.868 562.793 289.466 559.293C188.065 555.793 321.304 760.124 244.368 770C157.293 770 216.368 560.293 85.8194 526.293C-44.7289 492.293 65.4448 368.809 65.4448 314.5C65.4448 225.655 8.36786 41.419 126.368 132.106C244.368 222.793 191.829 103 244.368 103C385.753 103 428.204 266.557 318.869 352Z" fill="#767676"/>
</svg>
