<svg width="402" height="874" viewBox="0 0 402 874" fill="none" xmlns="http://www.w3.org/2000/svg">
<g clip-path="url(#clip0_603_4779)">
<rect width="402" height="874" fill="#111727"/>
<path d="M-14.5 445.429C-14.5 443.772 -13.1569 442.429 -11.5 442.429H-2.5C-0.843147 442.429 0.5 443.772 0.5 445.429V472C0.5 473.657 -0.843147 475 -2.5 475H-11.5C-13.1569 475 -14.5 473.657 -14.5 472V445.429Z" fill="#BEF364"/>
<path d="M-11.5 425.058C-13.1569 425.058 -14.5 423.714 -14.5 422.058V402C-14.5 400.343 -13.1569 399 -11.5 399H-2.5C-0.843147 399 0.5 400.343 0.5 402V422.058C0.5 423.714 -0.843147 425.058 -2.5 425.058H-11.5Z" fill="#BEF364"/>
<path d="M-81 475C-82.6569 475 -84 473.657 -84 472V402C-84 400.343 -82.6569 399 -81 399H-54.5806C-52.9238 399 -51.5806 400.343 -51.5806 402V423.977C-51.5806 424.573 -51.0968 425.057 -50.5 425.057C-49.9032 425.057 -49.4194 424.573 -49.4194 423.977V402C-49.4194 400.343 -48.0762 399 -46.4194 399H-20C-18.3431 399 -17 400.343 -17 402V422C-17 423.657 -18.3431 425 -20 425H-35.6129C-37.2698 425 -38.6129 426.343 -38.6129 428V439.429C-38.6129 441.086 -37.2698 442.429 -35.6129 442.429H-20C-18.3431 442.429 -17 443.772 -17 445.429V472C-17 473.657 -18.3431 475 -20 475H-46.4194C-48.0762 475 -49.4194 473.657 -49.4194 472V441.338C-49.4194 440.741 -49.9032 440.257 -50.5 440.257C-51.0968 440.257 -51.5806 440.741 -51.5806 441.338V472C-51.5806 473.657 -52.9238 475 -54.5806 475H-81Z" fill="#F9FBFC"/>
</g>
<defs>
<clipPath id="clip0_603_4779">
<rect width="402" height="874" fill="white"/>
</clipPath>
</defs>
</svg>
