<svg width="402" height="874" viewBox="0 0 402 874" fill="none" xmlns="http://www.w3.org/2000/svg">
<g clip-path="url(#clip0_612_4817)">
<rect width="402" height="874" fill="#111727"/>
<path d="M888.284 509.429C888.284 507.773 889.627 506.429 891.284 506.429H1077C1078.66 506.429 1080 507.773 1080 509.429V919.998C1080 921.655 1078.66 922.998 1077 922.998H891.284C889.627 922.998 888.284 921.655 888.284 919.998V509.429Z" fill="#BEF364"/>
<path d="M891.284 284.263C889.627 284.263 888.284 282.919 888.284 281.263V-46C888.284 -47.6569 889.627 -49 891.284 -49H1077C1078.66 -49 1080 -47.6569 1080 -46V281.263C1080 282.919 1078.66 284.263 1077 284.263H891.284Z" fill="#BEF364"/>
<path d="M2.99999 923C1.34314 923 0 921.657 0 920V-45.9982C0 -47.655 1.34315 -48.9982 3 -48.9982H411.354C413.011 -48.9982 414.354 -47.655 414.354 -45.9982V281.258C414.354 282.915 415.697 284.258 417.354 284.258H438.977C440.634 284.258 441.977 282.915 441.977 281.258V-45.9982C441.977 -47.655 443.321 -48.9982 444.977 -48.9982H853.331C854.988 -48.9982 856.331 -47.655 856.331 -45.9982V280.528C856.331 282.184 854.988 283.528 853.331 283.528H583.095C581.439 283.528 580.095 284.871 580.095 286.528V503.429C580.095 505.086 581.439 506.429 583.095 506.429H853.331C854.988 506.429 856.331 507.773 856.331 509.429V920C856.331 921.657 854.988 923 853.331 923H444.977C443.321 923 441.977 921.657 441.977 920V481.658C441.977 480.001 440.634 478.658 438.977 478.658H417.354C415.697 478.658 414.354 480.001 414.354 481.658V920C414.354 921.657 413.011 923 411.354 923H2.99999Z" fill="#F9FBFC"/>
</g>
<defs>
<clipPath id="clip0_612_4817">
<rect width="402" height="874" fill="white"/>
</clipPath>
</defs>
</svg>
