<svg width="85" height="24" viewBox="0 0 85 24" fill="none" xmlns="http://www.w3.org/2000/svg">
<path d="M12.463 23.7116L3.7096 13.7463V23.7116H0V1.44192H3.7096V11.5995L12.4955 1.44192H17.1488L7.32158 12.5928L17.3115 23.7116H12.463Z" fill="black"/>
<path d="M19.3554 14.8037C19.3554 13.0307 19.7242 11.4606 20.4618 10.0935C21.2211 8.7263 22.2407 7.66889 23.5206 6.92123C24.8222 6.1522 26.254 5.76769 27.8159 5.76769C29.226 5.76769 30.4517 6.04539 31.493 6.6008C32.556 7.13485 33.402 7.80774 34.0311 8.61949V6.05608H37.7733V23.7116H34.0311V21.0841C33.402 21.9172 32.5451 22.6115 31.4604 23.1669C30.3757 23.7223 29.1392 24 27.7508 24C26.2106 24 24.8005 23.6155 23.5206 22.8465C22.2407 22.0561 21.2211 20.9666 20.4618 19.5781C19.7242 18.1682 19.3554 16.5768 19.3554 14.8037ZM34.0311 14.8678C34.0311 13.6502 33.7708 12.5928 33.2501 11.6956C32.7512 10.7984 32.0895 10.1148 31.2652 9.64486C30.4408 9.1749 29.5514 8.93992 28.5969 8.93992C27.6424 8.93992 26.7529 9.1749 25.9286 9.64486C25.1042 10.0935 24.4317 10.7664 23.9111 11.6636C23.4121 12.5394 23.1626 13.5861 23.1626 14.8037C23.1626 16.0214 23.4121 17.0895 23.9111 18.008C24.4317 18.9266 25.1042 19.6315 25.9286 20.1228C26.7746 20.5928 27.6641 20.8278 28.5969 20.8278C29.5514 20.8278 30.4408 20.5928 31.2652 20.1228C32.0895 19.6529 32.7512 18.9693 33.2501 18.0721C33.7708 17.1535 34.0311 16.0854 34.0311 14.8678Z" fill="black"/>
<path d="M49.1537 24C47.7437 24 46.4746 23.7543 45.3465 23.263C44.2401 22.7503 43.3616 22.0668 42.7107 21.2123C42.0599 20.3364 41.7128 19.3645 41.6695 18.2964H45.5092C45.5743 19.0441 45.9322 19.6742 46.583 20.1869C47.2556 20.6782 48.0908 20.9239 49.0887 20.9239C50.1299 20.9239 50.9326 20.7316 51.4966 20.3471C52.0824 19.9413 52.3752 19.4286 52.3752 18.8091C52.3752 18.1469 52.0498 17.6555 51.399 17.3351C50.7699 17.0147 49.7612 16.6622 48.3728 16.2777C47.0278 15.9146 45.9322 15.5621 45.0862 15.2203C44.2401 14.8785 43.5026 14.3551 42.8734 13.6502C42.266 12.9453 41.9623 12.016 41.9623 10.8625C41.9623 9.92256 42.2443 9.06809 42.8084 8.29906C43.3724 7.50868 44.1751 6.88919 45.2164 6.44059C46.2793 5.99199 47.4942 5.76769 48.8609 5.76769C50.9001 5.76769 52.5379 6.28037 53.7745 7.30574C55.0327 8.30975 55.7052 9.68758 55.792 11.4393H52.0824C52.0173 10.6489 51.6919 10.0187 51.1062 9.54873C50.5204 9.07877 49.7286 8.84379 48.7307 8.84379C47.7545 8.84379 47.0061 9.02537 46.4854 9.38852C45.9648 9.75167 45.7045 10.2323 45.7045 10.8304C45.7045 11.3004 45.878 11.6956 46.2251 12.016C46.5722 12.3364 46.9952 12.5928 47.4942 12.785C47.9931 12.9559 48.7307 13.1802 49.7069 13.4579C51.0085 13.7997 52.0715 14.1522 52.8959 14.5154C53.7419 14.8571 54.4687 15.3698 55.0761 16.0534C55.6835 16.737 55.9981 17.6449 56.0198 18.777C56.0198 19.781 55.7377 20.6782 55.1737 21.4686C54.6097 22.259 53.807 22.8785 52.7657 23.3271C51.7461 23.7757 50.5421 24 49.1537 24Z" fill="black"/>
<path d="M69.3021 5.76769C70.6688 5.76769 71.8836 6.05607 72.9466 6.63284C74.0313 7.20961 74.8773 8.06409 75.4847 9.19626C76.1138 10.3284 76.4284 11.6956 76.4284 13.2977V23.7116H72.7514V13.8425C72.7514 12.2617 72.35 11.0547 71.5474 10.2216C70.7447 9.36716 69.6492 8.93992 68.2608 8.93992C66.8724 8.93992 65.766 9.36716 64.9417 10.2216C64.139 11.0547 63.7377 12.2617 63.7377 13.8425V23.7116H60.0281V0H63.7377V8.10681C64.3668 7.35915 65.1586 6.78238 66.1131 6.3765C67.0893 5.97063 68.1523 5.76769 69.3021 5.76769Z" fill="black"/>
<path d="M82.6571 23.9359C81.9846 23.9359 81.4206 23.7116 80.965 23.263C80.5094 22.8144 80.2816 22.259 80.2816 21.5968C80.2816 20.9346 80.5094 20.3792 80.965 19.9306C81.4206 19.482 81.9846 19.2577 82.6571 19.2577C83.3079 19.2577 83.8611 19.482 84.3167 19.9306C84.7722 20.3792 85 20.9346 85 21.5968C85 22.259 84.7722 22.8144 84.3167 23.263C83.8611 23.7116 83.3079 23.9359 82.6571 23.9359Z" fill="black"/>
</svg>
