<svg width="2510" height="1212" viewBox="0 0 2510 1212" fill="none" xmlns="http://www.w3.org/2000/svg">
<path d="M40 42C40 40.8954 40.8954 40 42 40H2468C2469.1 40 2470 40.8954 2470 42V1170C2470 1171.1 2469.1 1172 2468 1172H41.9999C40.8954 1172 40 1171.1 40 1170V42Z" fill="#ECECF3"/>
<path d="M42 40V41H2468V40V39H42V40ZM2470 42H2469V1170H2470H2471V42H2470ZM2468 1172V1171H41.9999V1172V1173H2468V1172ZM40 1170H41V42H40H39V1170H40ZM41.9999 1172V1171C41.4477 1171 41 1170.55 41 1170H40H39C39 1171.66 40.343 1173 41.9999 1173V1172ZM2470 1170H2469C2469 1170.55 2468.55 1171 2468 1171V1172V1173C2469.66 1173 2471 1171.66 2471 1170H2470ZM2468 40V41C2468.55 41 2469 41.4477 2469 42H2470H2471C2471 40.3432 2469.66 39 2468 39V40ZM42 40V39C40.3431 39 39 40.3432 39 42H40H41C41 41.4477 41.4477 41 42 41V40Z" fill="white" fill-opacity="0.1"/>
<g clip-path="url(#clip0_0_1)">
<rect width="402" height="874" transform="translate(188 169)" fill="#111727"/>
<path d="M173.5 614.429C173.5 612.772 174.843 611.429 176.5 611.429H185.5C187.157 611.429 188.5 612.772 188.5 614.429V641C188.5 642.657 187.157 644 185.5 644H176.5C174.843 644 173.5 642.657 173.5 641V614.429Z" fill="#BEF364"/>
<path d="M176.5 594.058C174.843 594.058 173.5 592.714 173.5 591.058V571C173.5 569.343 174.843 568 176.5 568H185.5C187.157 568 188.5 569.343 188.5 571V591.058C188.5 592.714 187.157 594.058 185.5 594.058H176.5Z" fill="#BEF364"/>
<path d="M107 644C105.343 644 104 642.657 104 641V571C104 569.343 105.343 568 107 568H133.419C135.076 568 136.419 569.343 136.419 571V592.977C136.419 593.573 136.903 594.057 137.5 594.057C138.097 594.057 138.581 593.573 138.581 592.977V571C138.581 569.343 139.924 568 141.581 568H168C169.657 568 171 569.343 171 571V591C171 592.657 169.657 594 168 594H152.387C150.73 594 149.387 595.343 149.387 597V608.429C149.387 610.086 150.73 611.429 152.387 611.429H168C169.657 611.429 171 612.772 171 614.429V641C171 642.657 169.657 644 168 644H141.581C139.924 644 138.581 642.657 138.581 641V610.338C138.581 609.741 138.097 609.257 137.5 609.257C136.903 609.257 136.419 609.741 136.419 610.338V641C136.419 642.657 135.076 644 133.419 644H107Z" fill="#F9FBFC"/>
</g>
<rect width="402" height="874" transform="translate(621 169)" fill="#111727"/>
<path d="M849.5 614.429C849.5 612.772 850.843 611.429 852.5 611.429H861.5C863.157 611.429 864.5 612.772 864.5 614.429V641C864.5 642.657 863.157 644 861.5 644H852.5C850.843 644 849.5 642.657 849.5 641V614.429Z" fill="#BEF364"/>
<path d="M852.5 594.058C850.843 594.058 849.5 592.714 849.5 591.058V571C849.5 569.343 850.843 568 852.5 568H861.5C863.157 568 864.5 569.343 864.5 571V591.058C864.5 592.714 863.157 594.058 861.5 594.058H852.5Z" fill="#BEF364"/>
<path d="M783 644C781.343 644 780 642.657 780 641V571C780 569.343 781.343 568 783 568H809.419C811.076 568 812.419 569.343 812.419 571V592.977C812.419 593.573 812.903 594.057 813.5 594.057C814.097 594.057 814.581 593.573 814.581 592.977V571C814.581 569.343 815.924 568 817.581 568H844C845.657 568 847 569.343 847 571V591C847 592.657 845.657 594 844 594H828.387C826.73 594 825.387 595.343 825.387 597V608.429C825.387 610.086 826.73 611.429 828.387 611.429H844C845.657 611.429 847 612.772 847 614.429V641C847 642.657 845.657 644 844 644H817.581C815.924 644 814.581 642.657 814.581 641V610.338C814.581 609.741 814.097 609.257 813.5 609.257C812.903 609.257 812.419 609.741 812.419 610.338V641C812.419 642.657 811.076 644 809.419 644H783Z" fill="#F9FBFC"/>
<g clip-path="url(#clip1_0_1)">
<rect width="402" height="874" transform="translate(1054 169)" fill="#111727"/>
<path d="M1942.28 678.429C1942.28 676.773 1943.63 675.429 1945.28 675.429H2131C2132.66 675.429 2134 676.773 2134 678.429V1089C2134 1090.66 2132.66 1092 2131 1092H1945.28C1943.63 1092 1942.28 1090.66 1942.28 1089V678.429Z" fill="#BEF364"/>
<path d="M1945.28 453.263C1943.63 453.263 1942.28 451.919 1942.28 450.263V123C1942.28 121.343 1943.63 120 1945.28 120H2131C2132.66 120 2134 121.343 2134 123V450.263C2134 451.919 2132.66 453.263 2131 453.263H1945.28Z" fill="#BEF364"/>
<path d="M1057 1092C1055.34 1092 1054 1090.66 1054 1089V123.002C1054 121.345 1055.34 120.002 1057 120.002H1465.35C1467.01 120.002 1468.35 121.345 1468.35 123.002V450.258C1468.35 451.915 1469.7 453.258 1471.35 453.258H1492.98C1494.63 453.258 1495.98 451.915 1495.98 450.258V123.002C1495.98 121.345 1497.32 120.002 1498.98 120.002H1907.33C1908.99 120.002 1910.33 121.345 1910.33 123.002V449.528C1910.33 451.184 1908.99 452.528 1907.33 452.528H1637.1C1635.44 452.528 1634.1 453.871 1634.1 455.528V672.429C1634.1 674.086 1635.44 675.429 1637.1 675.429H1907.33C1908.99 675.429 1910.33 676.773 1910.33 678.429V1089C1910.33 1090.66 1908.99 1092 1907.33 1092H1498.98C1497.32 1092 1495.98 1090.66 1495.98 1089V650.658C1495.98 649.001 1494.63 647.658 1492.98 647.658H1471.35C1469.7 647.658 1468.35 649.001 1468.35 650.658V1089C1468.35 1090.66 1467.01 1092 1465.35 1092H1057Z" fill="#F9FBFC"/>
</g>
<g clip-path="url(#clip2_0_1)">
<rect width="402" height="874" transform="translate(1487 169)" fill="#111727"/>
<path d="M2375.28 678.429C2375.28 676.773 2376.63 675.429 2378.28 675.429H2564C2565.66 675.429 2567 676.773 2567 678.429V1089C2567 1090.66 2565.66 1092 2564 1092H2378.28C2376.63 1092 2375.28 1090.66 2375.28 1089V678.429Z" fill="#BEF364"/>
<path d="M2378.28 453.263C2376.63 453.263 2375.28 451.919 2375.28 450.263V123C2375.28 121.343 2376.63 120 2378.28 120H2564C2565.66 120 2567 121.343 2567 123V450.263C2567 451.919 2565.66 453.263 2564 453.263H2378.28Z" fill="#BEF364"/>
<path d="M1490 1092C1488.34 1092 1487 1090.66 1487 1089V123.002C1487 121.345 1488.34 120.002 1490 120.002H1898.35C1900.01 120.002 1901.35 121.345 1901.35 123.002V450.258C1901.35 451.915 1902.7 453.258 1904.35 453.258H1925.98C1927.63 453.258 1928.98 451.915 1928.98 450.258V123.002C1928.98 121.345 1930.32 120.002 1931.98 120.002H2340.33C2341.99 120.002 2343.33 121.345 2343.33 123.002V449.528C2343.33 451.184 2341.99 452.528 2340.33 452.528H2070.1C2068.44 452.528 2067.1 453.871 2067.1 455.528V672.429C2067.1 674.086 2068.44 675.429 2070.1 675.429H2340.33C2341.99 675.429 2343.33 676.773 2343.33 678.429V1089C2343.33 1090.66 2341.99 1092 2340.33 1092H1931.98C1930.32 1092 1928.98 1090.66 1928.98 1089V650.658C1928.98 649.001 1927.63 647.658 1925.98 647.658H1904.35C1902.7 647.658 1901.35 649.001 1901.35 650.658V1089C1901.35 1090.66 1900.01 1092 1898.35 1092H1490Z" fill="#F9FBFC"/>
<path d="M1715.5 576.429C1715.5 574.772 1716.84 573.429 1718.5 573.429H1727.5C1729.16 573.429 1730.5 574.772 1730.5 576.429V603C1730.5 604.657 1729.16 606 1727.5 606H1718.5C1716.84 606 1715.5 604.657 1715.5 603V576.429Z" fill="#BEF364"/>
<path d="M1718.5 556.058C1716.84 556.058 1715.5 554.714 1715.5 553.058V533C1715.5 531.343 1716.84 530 1718.5 530H1727.5C1729.16 530 1730.5 531.343 1730.5 533V553.058C1730.5 554.714 1729.16 556.058 1727.5 556.058H1718.5Z" fill="#BEF364"/>
<path d="M1649 606C1647.34 606 1646 604.657 1646 603V533C1646 531.343 1647.34 530 1649 530H1675.42C1677.08 530 1678.42 531.343 1678.42 533V554.977C1678.42 555.573 1678.9 556.057 1679.5 556.057C1680.1 556.057 1680.58 555.573 1680.58 554.977V533C1680.58 531.343 1681.92 530 1683.58 530H1710C1711.66 530 1713 531.343 1713 533V553C1713 554.657 1711.66 556 1710 556H1694.39C1692.73 556 1691.39 557.343 1691.39 559V570.429C1691.39 572.086 1692.73 573.429 1694.39 573.429H1710C1711.66 573.429 1713 574.772 1713 576.429V603C1713 604.657 1711.66 606 1710 606H1683.58C1681.92 606 1680.58 604.657 1680.58 603V572.338C1680.58 571.741 1680.1 571.257 1679.5 571.257C1678.9 571.257 1678.42 571.741 1678.42 572.338V603C1678.42 604.657 1677.08 606 1675.42 606H1649Z" fill="#111727"/>
<path d="M1658.46 645.712L1649.71 635.746V645.712H1646V623.442H1649.71V633.599L1658.5 623.442H1663.15L1653.32 634.593L1663.31 645.712H1658.46Z" fill="black"/>
<path d="M1665.36 636.804C1665.36 635.031 1665.72 633.461 1666.46 632.093C1667.22 630.726 1668.24 629.669 1669.52 628.921C1670.82 628.152 1672.25 627.768 1673.82 627.768C1675.23 627.768 1676.45 628.045 1677.49 628.601C1678.56 629.135 1679.4 629.808 1680.03 630.619V628.056H1683.77V645.712H1680.03V643.084C1679.4 643.917 1678.55 644.611 1677.46 645.167C1676.38 645.722 1675.14 646 1673.75 646C1672.21 646 1670.8 645.615 1669.52 644.846C1668.24 644.056 1667.22 642.967 1666.46 641.578C1665.72 640.168 1665.36 638.577 1665.36 636.804ZM1680.03 636.868C1680.03 635.65 1679.77 634.593 1679.25 633.696C1678.75 632.798 1678.09 632.115 1677.27 631.645C1676.44 631.175 1675.55 630.94 1674.6 630.94C1673.64 630.94 1672.75 631.175 1671.93 631.645C1671.1 632.093 1670.43 632.766 1669.91 633.664C1669.41 634.539 1669.16 635.586 1669.16 636.804C1669.16 638.021 1669.41 639.089 1669.91 640.008C1670.43 640.927 1671.1 641.632 1671.93 642.123C1672.77 642.593 1673.66 642.828 1674.6 642.828C1675.55 642.828 1676.44 642.593 1677.27 642.123C1678.09 641.653 1678.75 640.969 1679.25 640.072C1679.77 639.154 1680.03 638.085 1680.03 636.868Z" fill="black"/>
<path d="M1695.15 646C1693.74 646 1692.47 645.754 1691.35 645.263C1690.24 644.75 1689.36 644.067 1688.71 643.212C1688.06 642.336 1687.71 641.364 1687.67 640.296H1691.51C1691.57 641.044 1691.93 641.674 1692.58 642.187C1693.26 642.678 1694.09 642.924 1695.09 642.924C1696.13 642.924 1696.93 642.732 1697.5 642.347C1698.08 641.941 1698.38 641.429 1698.38 640.809C1698.38 640.147 1698.05 639.656 1697.4 639.335C1696.77 639.015 1695.76 638.662 1694.37 638.278C1693.03 637.915 1691.93 637.562 1691.09 637.22C1690.24 636.879 1689.5 636.355 1688.87 635.65C1688.27 634.945 1687.96 634.016 1687.96 632.862C1687.96 631.923 1688.24 631.068 1688.81 630.299C1689.37 629.509 1690.18 628.889 1691.22 628.441C1692.28 627.992 1693.49 627.768 1694.86 627.768C1696.9 627.768 1698.54 628.28 1699.77 629.306C1701.03 630.31 1701.71 631.688 1701.79 633.439H1698.08C1698.02 632.649 1697.69 632.019 1697.11 631.549C1696.52 631.079 1695.73 630.844 1694.73 630.844C1693.75 630.844 1693.01 631.025 1692.49 631.389C1691.96 631.752 1691.7 632.232 1691.7 632.83C1691.7 633.3 1691.88 633.696 1692.23 634.016C1692.57 634.336 1693 634.593 1693.49 634.785C1693.99 634.956 1694.73 635.18 1695.71 635.458C1697.01 635.8 1698.07 636.152 1698.9 636.515C1699.74 636.857 1700.47 637.37 1701.08 638.053C1701.68 638.737 1702 639.645 1702.02 640.777C1702.02 641.781 1701.74 642.678 1701.17 643.469C1700.61 644.259 1699.81 644.879 1698.77 645.327C1697.75 645.776 1696.54 646 1695.15 646Z" fill="black"/>
<path d="M1715.3 627.768C1716.67 627.768 1717.88 628.056 1718.95 628.633C1720.03 629.21 1720.88 630.064 1721.48 631.196C1722.11 632.328 1722.43 633.696 1722.43 635.298V645.712H1718.75V635.842C1718.75 634.262 1718.35 633.055 1717.55 632.222C1716.74 631.367 1715.65 630.94 1714.26 630.94C1712.87 630.94 1711.77 631.367 1710.94 632.222C1710.14 633.055 1709.74 634.262 1709.74 635.842V645.712H1706.03V622H1709.74V630.107C1710.37 629.359 1711.16 628.782 1712.11 628.377C1713.09 627.971 1714.15 627.768 1715.3 627.768Z" fill="black"/>
<path d="M1728.66 645.936C1727.98 645.936 1727.42 645.712 1726.96 645.263C1726.51 644.814 1726.28 644.259 1726.28 643.597C1726.28 642.935 1726.51 642.379 1726.96 641.931C1727.42 641.482 1727.98 641.258 1728.66 641.258C1729.31 641.258 1729.86 641.482 1730.32 641.931C1730.77 642.379 1731 642.935 1731 643.597C1731 644.259 1730.77 644.814 1730.32 645.263C1729.86 645.712 1729.31 645.936 1728.66 645.936Z" fill="black"/>
</g>
<g clip-path="url(#clip3_0_1)">
<rect width="402" height="874" transform="translate(1920 169)" fill="#111727"/>
<path d="M2808.28 678.429C2808.28 676.773 2809.63 675.429 2811.28 675.429H2997C2998.66 675.429 3000 676.773 3000 678.429V1089C3000 1090.66 2998.66 1092 2997 1092H2811.28C2809.63 1092 2808.28 1090.66 2808.28 1089V678.429Z" fill="#BEF364"/>
<path d="M2811.28 453.263C2809.63 453.263 2808.28 451.919 2808.28 450.263V123C2808.28 121.343 2809.63 120 2811.28 120H2997C2998.66 120 3000 121.343 3000 123V450.263C3000 451.919 2998.66 453.263 2997 453.263H2811.28Z" fill="#BEF364"/>
<path d="M1923 1092C1921.34 1092 1920 1090.66 1920 1089V123.002C1920 121.345 1921.34 120.002 1923 120.002H2331.35C2333.01 120.002 2334.35 121.345 2334.35 123.002V450.258C2334.35 451.915 2335.7 453.258 2337.35 453.258H2358.98C2360.63 453.258 2361.98 451.915 2361.98 450.258V123.002C2361.98 121.345 2363.32 120.002 2364.98 120.002H2773.33C2774.99 120.002 2776.33 121.345 2776.33 123.002V449.528C2776.33 451.184 2774.99 452.528 2773.33 452.528H2503.1C2501.44 452.528 2500.1 453.871 2500.1 455.528V672.429C2500.1 674.086 2501.44 675.429 2503.1 675.429H2773.33C2774.99 675.429 2776.33 676.773 2776.33 678.429V1089C2776.33 1090.66 2774.99 1092 2773.33 1092H2364.98C2363.32 1092 2361.98 1090.66 2361.98 1089V650.658C2361.98 649.001 2360.63 647.658 2358.98 647.658H2337.35C2335.7 647.658 2334.35 649.001 2334.35 650.658V1089C2334.35 1090.66 2333.01 1092 2331.35 1092H1923Z" fill="#F9FBFC"/>
<path d="M2121 647.667C2115.31 647.667 2109.92 646.574 2104.85 644.386C2099.78 642.199 2095.36 639.212 2091.57 635.428C2087.79 631.643 2084.8 627.216 2082.61 622.146C2080.43 617.077 2079.33 611.695 2079.33 606.001C2079.33 600.237 2080.43 594.837 2082.61 589.803C2084.8 584.768 2087.79 580.358 2091.57 576.574C2095.36 572.789 2099.78 569.803 2104.85 567.615C2109.92 565.428 2115.31 564.334 2121 564.334C2122.18 564.334 2123.17 564.733 2123.97 565.532C2124.77 566.331 2125.17 567.32 2125.17 568.501C2125.17 569.681 2124.77 570.671 2123.97 571.469C2123.17 572.268 2122.18 572.667 2121 572.667C2111.76 572.667 2103.9 575.914 2097.41 582.407C2090.91 588.9 2087.67 596.765 2087.67 606.001C2087.67 615.237 2090.91 623.101 2097.41 629.594C2103.9 636.087 2111.76 639.334 2121 639.334C2130.24 639.334 2138.1 636.087 2144.59 629.594C2151.09 623.101 2154.33 615.237 2154.33 606.001C2154.33 604.82 2154.73 603.831 2155.53 603.032C2156.33 602.233 2157.32 601.834 2158.5 601.834C2159.68 601.834 2160.67 602.233 2161.47 603.032C2162.27 603.831 2162.67 604.82 2162.67 606.001C2162.67 611.695 2161.57 617.077 2159.39 622.146C2157.2 627.216 2154.21 631.643 2150.43 635.428C2146.64 639.212 2142.23 642.199 2137.2 644.386C2132.16 646.574 2126.76 647.667 2121 647.667Z" fill="#111727"/>
</g>
<rect x="40" y="4" width="61.5781" height="30" rx="3" fill="#ECECF3"/>
<rect x="40.5" y="4.5" width="60.5781" height="29" rx="2.5" stroke="white" stroke-opacity="0.0980392"/>
<path d="M53.7188 18C53.7188 18.8437 53.5664 19.5729 53.2617 20.1875C52.957 20.8021 52.5391 21.276 52.0078 21.6094C51.4766 21.9427 50.8698 22.1094 50.1875 22.1094C49.5052 22.1094 48.8984 21.9427 48.3672 21.6094C47.8359 21.276 47.418 20.8021 47.1133 20.1875C46.8086 19.5729 46.6563 18.8437 46.6563 18C46.6563 17.1562 46.8086 16.4271 47.1133 15.8125C47.418 15.1979 47.8359 14.724 48.3672 14.3906C48.8984 14.0573 49.5052 13.8906 50.1875 13.8906C50.8698 13.8906 51.4766 14.0573 52.0078 14.3906C52.5391 14.724 52.957 15.1979 53.2617 15.8125C53.5664 16.4271 53.7188 17.1562 53.7188 18ZM52.7813 18C52.7813 17.3073 52.6654 16.7227 52.4336 16.2461C52.2044 15.7695 51.8932 15.4089 51.5 15.1641C51.1094 14.9193 50.6719 14.7969 50.1875 14.7969C49.7031 14.7969 49.2643 14.9193 48.8711 15.1641C48.4805 15.4089 48.1693 15.7695 47.9375 16.2461C47.7083 16.7227 47.5938 17.3073 47.5938 18C47.5938 18.6927 47.7083 19.2773 47.9375 19.7539C48.1693 20.2305 48.4805 20.5911 48.8711 20.8359C49.2643 21.0807 49.7031 21.2031 50.1875 21.2031C50.6719 21.2031 51.1094 21.0807 51.5 20.8359C51.8932 20.5911 52.2044 20.2305 52.4336 19.7539C52.6654 19.2773 52.7813 18.6927 52.7813 18ZM55.3477 22V14H58.0508C58.6784 14 59.1914 14.1133 59.5898 14.3398C59.9909 14.5638 60.2878 14.8672 60.4805 15.25C60.6732 15.6328 60.7695 16.0599 60.7695 16.5312C60.7695 17.0026 60.6732 17.431 60.4805 17.8164C60.2904 18.2018 59.9961 18.5091 59.5977 18.7383C59.1992 18.9648 58.6888 19.0781 58.0664 19.0781H56.1289V18.2188H58.0352C58.4648 18.2188 58.8099 18.1445 59.0703 17.9961C59.3307 17.8477 59.5195 17.6471 59.6367 17.3945C59.7565 17.1393 59.8164 16.8516 59.8164 16.5312C59.8164 16.2109 59.7565 15.9245 59.6367 15.6719C59.5195 15.4193 59.3294 15.2214 59.0664 15.0781C58.8034 14.9323 58.4544 14.8594 58.0195 14.8594H56.3164V22H55.3477ZM62.3301 22V14H67.1582V14.8594H63.2988V17.5625H66.9082V18.4219H63.2988V21.1406H67.2207V22H62.3301ZM75.248 14V22H74.3105L69.9512 15.7187H69.873V22H68.9043V14H69.8418L74.2168 20.2969H74.2949V14H75.248ZM78.1553 14V22H77.1865V14H78.1553ZM86.4414 14V22H85.5039L81.1445 15.7187H81.0664V22H80.0977V14H81.0352L85.4102 20.2969H85.4883V14H86.4414ZM93.8486 16.5C93.7627 16.237 93.6494 16.0013 93.5088 15.793C93.3708 15.582 93.2054 15.4023 93.0127 15.2539C92.8226 15.1055 92.6064 14.9922 92.3643 14.9141C92.1221 14.8359 91.8564 14.7969 91.5674 14.7969C91.0934 14.7969 90.6624 14.9193 90.2744 15.1641C89.8864 15.4089 89.5778 15.7695 89.3486 16.2461C89.1195 16.7227 89.0049 17.3073 89.0049 18C89.0049 18.6927 89.1208 19.2773 89.3525 19.7539C89.5843 20.2305 89.8981 20.5911 90.2939 20.8359C90.6898 21.0807 91.1351 21.2031 91.6299 21.2031C92.0882 21.2031 92.4919 21.1055 92.8408 20.9102C93.1924 20.7122 93.4658 20.4336 93.6611 20.0742C93.859 19.7122 93.958 19.2865 93.958 18.7969L94.2549 18.8594H91.8486V18H94.8955V18.8594C94.8955 19.5182 94.7549 20.0911 94.4736 20.5781C94.195 21.0651 93.8096 21.4427 93.3174 21.7109C92.8278 21.9766 92.2653 22.1094 91.6299 22.1094C90.9215 22.1094 90.2992 21.9427 89.7627 21.6094C89.2288 21.276 88.8122 20.8021 88.5127 20.1875C88.2158 19.5729 88.0674 18.8437 88.0674 18C88.0674 17.3672 88.152 16.7982 88.3213 16.293C88.4932 15.7852 88.7354 15.3529 89.0479 14.9961C89.3604 14.6393 89.7301 14.3659 90.1572 14.1758C90.5843 13.9857 91.0544 13.8906 91.5674 13.8906C91.9893 13.8906 92.3825 13.9544 92.7471 14.082C93.1143 14.207 93.4411 14.3854 93.7275 14.6172C94.0166 14.8464 94.2575 15.1211 94.4502 15.4414C94.6429 15.7591 94.7757 16.112 94.8486 16.5H93.8486Z" fill="black"/>
<defs>
<clipPath id="clip0_0_1">
<rect width="402" height="874" fill="white" transform="translate(188 169)"/>
</clipPath>
<clipPath id="clip1_0_1">
<rect width="402" height="874" fill="white" transform="translate(1054 169)"/>
</clipPath>
<clipPath id="clip2_0_1">
<rect width="402" height="874" fill="white" transform="translate(1487 169)"/>
</clipPath>
<clipPath id="clip3_0_1">
<rect width="402" height="874" fill="white" transform="translate(1920 169)"/>
</clipPath>
</defs>
</svg>
