<svg width="100" height="100" viewBox="0 0 100 100" fill="none" xmlns="http://www.w3.org/2000/svg">
<path d="M49.9997 91.6673C44.3052 91.6673 38.9233 90.5736 33.8538 88.3861C28.7844 86.1986 24.3573 83.2125 20.5726 79.4277C16.7879 75.643 13.8018 71.2159 11.6143 66.1465C9.42676 61.077 8.33301 55.6951 8.33301 50.0006C8.33301 44.2368 9.42676 38.8375 11.6143 33.8027C13.8018 28.768 16.7879 24.3583 20.5726 20.5736C24.3573 16.7888 28.7844 13.8027 33.8538 11.6152C38.9233 9.42773 44.3052 8.33398 49.9997 8.33398C51.1802 8.33398 52.1698 8.73329 52.9684 9.5319C53.767 10.3305 54.1663 11.3201 54.1663 12.5007C54.1663 13.6812 53.767 14.6708 52.9684 15.4694C52.1698 16.268 51.1802 16.6673 49.9997 16.6673C40.7636 16.6673 32.899 19.9138 26.4059 26.4069C19.9129 32.9 16.6663 40.7645 16.6663 50.0006C16.6663 59.2368 19.9129 67.1013 26.4059 73.5944C32.899 80.0875 40.7636 83.334 49.9997 83.334C59.2358 83.334 67.1004 80.0875 73.5934 73.5944C80.0865 67.1013 83.333 59.2368 83.333 50.0006C83.333 48.8201 83.7323 47.8305 84.5309 47.0319C85.3295 46.2333 86.3191 45.834 87.4997 45.834C88.6802 45.834 89.6698 46.2333 90.4684 47.0319C91.267 47.8305 91.6663 48.8201 91.6663 50.0006C91.6663 55.6951 90.5726 61.077 88.3851 66.1465C86.1976 71.2159 83.2115 75.643 79.4268 79.4277C75.642 83.2125 71.2323 86.1986 66.1976 88.3861C61.1629 90.5736 55.7636 91.6673 49.9997 91.6673Z" fill="#111727"/>
</svg>
