<svg width="85" height="76" viewBox="0 0 85 76" fill="none" xmlns="http://www.w3.org/2000/svg">
<path d="M69.5 46.4287C69.5 44.7719 70.8431 43.4287 72.5 43.4287H81.5C83.1569 43.4287 84.5 44.7719 84.5 46.4287V73C84.5 74.6569 83.1569 76 81.5 76H72.5C70.8431 76 69.5 74.6569 69.5 73V46.4287Z" fill="#BEF364"/>
<path d="M72.5 26.0576C70.8431 26.0576 69.5 24.7145 69.5 23.0576V3C69.5 1.34315 70.8431 0 72.5 0H81.5C83.1569 0 84.5 1.34315 84.5 3V23.0576C84.5 24.7145 83.1569 26.0576 81.5 26.0576H72.5Z" fill="#BEF364"/>
<path d="M3 76.0001C1.34314 76.0001 0 74.657 0 73.0001V3.00014C0 1.34329 1.34315 0.000141144 3 0.000141144H29.4194C31.0762 0.000141144 32.4194 1.34329 32.4194 3.00014V24.9766C32.4194 25.5735 32.9032 26.0573 33.5 26.0573C34.0968 26.0573 34.5806 25.5735 34.5806 24.9766V3.00014C34.5806 1.34329 35.9238 0.000141144 37.5806 0.000141144H64C65.6569 0.000141144 67 1.34329 67 3.00014V23.0001C67 24.657 65.6569 26.0001 64 26.0001H48.3871C46.7302 26.0001 45.3871 27.3433 45.3871 29.0001V40.4287C45.3871 42.0856 46.7302 43.4287 48.3871 43.4287H64C65.6569 43.4287 67 44.7719 67 46.4287V73.0001C67 74.657 65.6569 76.0001 64 76.0001H37.5806C35.9238 76.0001 34.5806 74.657 34.5806 73.0001V42.3379C34.5806 41.7411 34.0968 41.2573 33.5 41.2573C32.9032 41.2573 32.4194 41.7411 32.4194 42.3379V73.0001C32.4194 74.657 31.0762 76.0001 29.4194 76.0001H3Z" fill="#111727"/>
</svg>
