<svg width="327" height="294" viewBox="0 0 327 294" fill="none" xmlns="http://www.w3.org/2000/svg">
<path d="M268.953 171C268.953 169.343 270.296 168 271.953 168H324C325.657 168 327 169.343 327 171V290.999C327 292.656 325.657 293.999 324 293.999H271.953C270.296 293.999 268.953 292.656 268.953 290.999V171Z" fill="#BEF364"/>
<path d="M271.953 100.802C270.296 100.802 268.953 99.4585 268.953 97.8017V3C268.953 1.34314 270.296 0 271.953 0H324C325.657 0 327 1.34315 327 3V97.8017C327 99.4585 325.657 100.802 324 100.802H271.953Z" fill="#BEF364"/>
<path d="M3 294C1.34315 294 0 292.657 0 291V3.00056C0 1.3437 1.34315 0.000546003 3 0.000546003H122.457C124.114 0.000546003 125.457 1.34369 125.457 3.00055V97.8004C125.457 99.4572 126.8 100.8 128.457 100.8H130.821C132.478 100.8 133.821 99.4572 133.821 97.8004V3.00055C133.821 1.34369 135.164 0.000546003 136.821 0.000546003H256.278C257.935 0.000546003 259.278 1.34369 259.278 3.00055V97.5793C259.278 99.2362 257.935 100.579 256.278 100.579H178.64C176.983 100.579 175.64 101.922 175.64 103.579V165C175.64 166.657 176.983 168 178.64 168H256.278C257.935 168 259.278 169.343 259.278 171V291C259.278 292.657 257.935 294 256.278 294H136.821C135.164 294 133.821 292.657 133.821 291V162.6C133.821 160.943 132.478 159.6 130.821 159.6H128.457C126.8 159.6 125.457 160.943 125.457 162.6V291C125.457 292.657 124.114 294 122.457 294H3Z" fill="#F9FBFC"/>
</svg>
